<svg width="469.333" height="469.333" xmlns="http://www.w3.org/2000/svg">

 <g>
  <title>background</title>
  <rect fill="none" id="canvas_background" height="402" width="582" y="-1" x="-1"/>
 </g>
 <g>
  <title>Layer 1</title>
  <g id="svg_1">
   <g id="svg_2">
    <g id="svg_3">
     <path fill="#D3BEE7" id="svg_4" d="m394.667,384l-319.917,0c-5.885,0 -10.656,4.771 -10.667,10.656l-0.042,31.104c-0.01,11.635 4.51,22.573 12.729,30.802c8.229,8.24 19.156,12.771 30.792,12.771l254.25,0c24,0 43.521,-19.521 43.521,-43.521l0,-31.146c0,-5.895 -4.77,-10.666 -10.666,-10.666z"/>
     <path fill="#D3BEE7" id="svg_5" d="m352,42.667c-6.531,0 -13.24,0.656 -20.344,1.979c-24.406,-28.459 -59.385,-44.646 -96.989,-44.646c-70.583,0 -128,57.417 -128,128c0,5.885 -4.781,10.667 -10.667,10.667c-5.885,0 -10.667,-4.781 -10.667,-10.667c0,-23.094 5.313,-45.438 15.792,-66.406c1.865,-3.729 1.385,-8.198 -1.219,-11.448c-2.604,-3.229 -6.865,-4.667 -10.906,-3.677c-52.406,13.073 -89,59.76 -89,113.531c0,44.333 25,84.635 64.25,104.562l-0.115,87.427c0,2.823 1.115,5.542 3.115,7.552c2.01,2 4.719,3.125 7.552,3.125l319.865,0c5.896,0 10.667,-4.771 10.667,-10.667l0,-87.594c39.104,-19.979 64,-60.219 64,-104.406c-0.001,-64.697 -52.636,-117.332 -117.334,-117.332zm-195.896,253.583c-1.99,1.625 -4.385,2.417 -6.76,2.417c-3.083,0 -6.146,-1.333 -8.26,-3.896c-3.521,-4.302 -34.417,-42.76 -34.417,-70.771c0,-5.896 4.771,-10.667 10.667,-10.667c5.896,0 10.667,4.771 10.667,10.667c0,15.438 18.146,43.292 29.583,57.229c3.728,4.563 3.072,11.281 -1.48,15.021zm89.229,-8.25c0,5.896 -4.771,10.667 -10.667,10.667s-10.666,-4.771 -10.666,-10.667l0,-64c0,-5.896 4.771,-10.667 10.667,-10.667s10.667,4.771 10.667,10.667l0,64l-0.001,0zm82.917,6.771c-2.115,2.563 -5.167,3.896 -8.25,3.896c-2.385,0 -4.781,-0.792 -6.76,-2.417c-4.552,-3.74 -5.219,-10.458 -1.49,-15.01c11.438,-13.969 29.583,-41.854 29.583,-57.24c0,-5.896 4.771,-10.667 10.667,-10.667c5.896,0 10.667,4.771 10.667,10.667c0,28.01 -30.896,66.469 -34.417,70.771z"/>
    </g>
   </g>
  </g>
  <g id="svg_6"/>
  <g id="svg_7"/>
  <g id="svg_8"/>
  <g id="svg_9"/>
  <g id="svg_10"/>
  <g id="svg_11"/>
  <g id="svg_12"/>
  <g id="svg_13"/>
  <g id="svg_14"/>
  <g id="svg_15"/>
  <g id="svg_16"/>
  <g id="svg_17"/>
  <g id="svg_18"/>
  <g id="svg_19"/>
  <g id="svg_20"/>
 </g>
</svg>